
<svg
xmlns="http://www.w3.org/2000/svg"
viewBox="527
0
700
700">
<path
d="M312
120C312
106
322
96
336
96C349
96
360
106.7
360
120C360
133
349
144
336
144C322.7
144
312
133
312
120zM28.44
160H192C209.7
160
224
145
224
128V112C224
50.14
274.1
0
336
0C385
0
427
32.4
442.5
77.24L504.2
114.3C509.1
117.2
512
122
512
128C512
133
509
138
504
141.7L448
175.5V192C448
285
390
366
308
399.6L349.2
476.8C355.4
488
350
503
339
509.2C327.5
515
312
510
306
499.2L261.1
412.9C249
414
236
416
224
416C223
416
222
415
221
415.1L253.2
476.8C259.4
488
254
503
243
509.2C231.5
515
216
510
210
499.2L162.1
407.4C68.52
380
0
294
0
192V188.4C0
172
12
160
28
160L28.44
160zM48.72
208C56.8
297
132
368
224
368C321.2
368
400
289
400
192V112C400
76.65
371
48
336
48C300.7
48
272
76
272
112V128C272
172
208
192
208H48.72z"/>
</svg>